<svg xmlns="http://www.w3.org/2000/svg" viewBox="0 0 406.32 149.9"><defs><style>.cls-1{fill:#3b83fc;}.cls-2{fill:#fff;}.cls-3{fill:#4b4d4f;}</style></defs><title>Asset 2</title><g id="Layer_2" data-name="Layer 2"><g id="Layer_1-2" data-name="Layer 1"><path class="cls-1" d="M191.73,24.5A24.5,24.5,0,0,0,167.23,0H24.5A24.5,24.5,0,0,0,0,24.5V106a24.5,24.5,0,0,0,24.5,24.5h132l29.62,18.85a3.67,3.67,0,0,0,5.65-3.1V108.16a4.07,4.07,0,0,0-.08-.61c0-.52.08-1,.08-1.58Z"/><path class="cls-2" d="M17.1,85.79,25.46,81a1.6,1.6,0,0,1,2.14.55c2,3.21,4.91,4.82,9.69,4.82,7.09,0,10.17-3.73,10.17-9V34a1.59,1.59,0,0,1,1.59-1.59h9.6A1.59,1.59,0,0,1,60.24,34V77.33c0,14.08-10.08,21.64-23,21.64-9.37,0-16.6-3.79-20.77-11A1.61,1.61,0,0,1,17.1,85.79Z"/><path class="cls-2" d="M68.35,74.35A24.67,24.67,0,1,1,93,99,24.36,24.36,0,0,1,68.35,74.35Zm37.31,0c0-7.56-5.51-12.87-12.69-12.87S80.38,66.79,80.38,74.35,85.88,87.22,93,87.22A12.41,12.41,0,0,0,105.66,74.35Z"/><path class="cls-2" d="M176.07,74.35c0,13.89-10.26,24.62-22.76,24.62-5.23,0-9.36-1.49-12.52-4.13a1.58,1.58,0,0,0-2.58,1.23h0a1.59,1.59,0,0,1-1.59,1.59h-8.85a1.6,1.6,0,0,1-1.6-1.59V34a1.6,1.6,0,0,1,1.6-1.59h8.85A1.59,1.59,0,0,1,138.21,34V52.62a1.58,1.58,0,0,0,2.58,1.23c3.16-2.64,7.29-4.12,12.52-4.12C165.81,49.73,176.07,60.45,176.07,74.35Zm-12,0c0-7.84-5.5-13.15-13-13.15s-12.87,5.31-12.87,13.15,5.5,13.15,12.87,13.15S164,82.18,164,74.35Z"/><path class="cls-3" d="M252.49,73.88c0,14.11-10.42,25-23.11,25-5.43,0-9.7-1.58-12.93-4.37A1.45,1.45,0,0,0,214,95.57v.52a1.46,1.46,0,0,1-1.46,1.47h-9.29a1.46,1.46,0,0,1-1.46-1.47V32.71a1.46,1.46,0,0,1,1.46-1.46h9.29A1.46,1.46,0,0,1,214,32.71V52.18a1.45,1.45,0,0,0,2.42,1.06c3.23-2.79,7.5-4.37,12.93-4.37C242.07,48.87,252.49,59.76,252.49,73.88Zm-12.22,0c0-8-5.59-13.36-13.16-13.36S214,65.92,214,73.88s5.59,13.35,13.08,13.35S240.27,81.83,240.27,73.88Z"/><path class="cls-3" d="M301.08,50.19a1.47,1.47,0,0,1,1.38,2l-16.53,45.4c-4.73,13.09-12.34,19.12-23.59,19a1.46,1.46,0,0,1-1.42-1.46v-8.53a1.46,1.46,0,0,1,1.38-1.45c5.64-.29,8.72-3,10.83-8.51a1.49,1.49,0,0,0,0-1.1L254.78,52.23a1.46,1.46,0,0,1,1.34-2h10.15a1.47,1.47,0,0,1,1.36.94l10.48,27.09a1.46,1.46,0,0,0,2.75-.07l8.91-26.95a1.45,1.45,0,0,1,1.38-1Z"/><path class="cls-3" d="M330.74,87.8a13.46,13.46,0,0,0,9.88-3.89,1.44,1.44,0,0,1,1.77-.24l7.38,4.25a1.48,1.48,0,0,1,.39,2.21c-4.48,5.58-11.19,8.75-19.61,8.75-15.92,0-26-10.89-26-25s10.14-25,25-25c14,0,24,11.08,24,25a26.47,26.47,0,0,1-.27,3.75,1.47,1.47,0,0,1-1.45,1.27H319.46A1.47,1.47,0,0,0,318.15,81C320.37,85.75,325.08,87.8,330.74,87.8Zm8.66-18.38a1.45,1.45,0,0,0,1.39-1.91,11.37,11.37,0,0,0-11.19-7.65c-5.77,0-9.91,2.73-11.78,7.53a1.47,1.47,0,0,0,1.35,2Z"/><path class="cls-3" d="M406.32,68.48V96.09a1.46,1.46,0,0,1-1.46,1.47h-9.29a1.47,1.47,0,0,1-1.47-1.47V70c0-6.44-3.88-9.75-9.37-9.75-6,0-10.42,3.5-10.42,11.74V96.09a1.47,1.47,0,0,1-1.46,1.47h-9.3a1.46,1.46,0,0,1-1.46-1.47V51.66a1.46,1.46,0,0,1,1.46-1.47h9.3a1.47,1.47,0,0,1,1.46,1.47h0a1.45,1.45,0,0,0,2.4,1.1c2.89-2.53,6.89-3.89,11.71-3.89C398.46,48.87,406.32,55.88,406.32,68.48Z"/></g></g></svg>